<?xml version="1.0" encoding="UTF-8"?>
<svg id="Layer_1" data-name="Layer 1" xmlns="http://www.w3.org/2000/svg" viewBox="0 0 252.9 252.9">
  <defs>
    <style>
      .cls-1 {
        fill-rule: evenodd;
      }
    </style>
  </defs>
  <path class="cls-1" d="M126.45,0C56.61,0,0,56.61,0,126.45s56.61,126.45,126.45,126.45,126.45-56.61,126.45-126.45S196.29,0,126.45,0ZM184.34,162.33c0,2.88-.03,5.49-.63,8.37-.59,2.79-1.66,5.43-3.31,7.79-1.65,2.36-3.75,4.3-6.22,5.75-2.49,1.47-5.1,2.31-7.89,2.87-5.24,1.05-8.82,1.29-12.18.62-3.24-.65-5.99-2.14-8.2-4.16-3.26-2.98-5.29-7.02-5.74-11.25-.52-4.95,1.12-10.23,4.84-14.12,1.87-1.97,4.23-3.52,7.37-4.74,3.29-1.28,6.92-2.04,12.49-3.16,1.47-.3,2.94-.59,4.41-.89,1.94-.39,3.59-.88,4.93-2.52,1.35-1.64,1.37-3.65,1.37-5.63v-50.04c0-3.83-1.72-4.87-5.38-4.17-2.62.51-58.74,11.83-58.74,11.83-3.17.77-4.28,1.8-4.28,5.73v73.3c0,2.88-.14,5.49-.75,8.37-.59,2.79-1.66,5.43-3.31,7.79-1.65,2.36-3.75,4.3-6.22,5.75-2.49,1.47-5.1,2.35-7.89,2.91-5.24,1.06-8.82,1.29-12.18.62-3.24-.65-5.99-2.18-8.2-4.2-3.26-2.98-5.16-7.02-5.6-11.25-.52-4.95.99-10.23,4.71-14.12,1.87-1.97,4.23-3.52,7.37-4.74,3.29-1.28,6.92-2.04,12.49-3.16,1.47-.3,2.94-.59,4.41-.89,1.94-.39,3.59-.88,4.93-2.52,1.34-1.63,1.49-3.55,1.49-5.53v-84.51c0-1.14.1-1.91.15-2.28.27-1.78.98-3.31,2.27-4.39,1.07-.9,2.45-1.52,4.21-1.89h.03s67.52-13.63,67.52-13.63c.59-.12,5.47-.98,6.01-1.03,3.65-.31,5.7,2.08,5.69,5.97v107.16Z"/>
</svg>