<svg xmlns="http://www.w3.org/2000/svg" xmlns:xlink="http://www.w3.org/1999/xlink" version="1.1" width="256" height="256" viewBox="0 0 256 256" xml:space="preserve">
<g style="stroke: none; stroke-width: 0; stroke-dasharray: none; stroke-linecap: butt; stroke-linejoin: miter; stroke-miterlimit: 10; fill: none; fill-rule: nonzero; opacity: 1;" transform="translate(1.4065934065934016 1.4065934065934016) scale(2.81 2.81)">
	<path d="M 90 28.154 c 0 -1.075 0 -2.15 -0.005 -3.225 c -0.005 -0.905 -0.015 -1.81 -0.04 -2.715 c -0.052 -1.972 -0.17 -3.96 -0.52 -5.91 c -0.355 -1.98 -0.938 -3.823 -1.853 -5.622 c -0.9 -1.767 -2.075 -3.382 -3.478 -4.785 c -1.402 -1.403 -3.02 -2.578 -4.787 -3.478 c -1.798 -0.915 -3.64 -1.495 -5.618 -1.852 c -1.95 -0.35 -3.94 -0.468 -5.912 -0.52 c -0.905 -0.025 -1.81 -0.035 -2.715 -0.04 c -1.075 -0.005 -2.15 -0.005 -3.225 -0.005 H 28.153 c -1.075 0 -2.15 0 -3.225 0.005 c -0.905 0.005 -1.81 0.015 -2.715 0.04 C 20.24 0.101 18.25 0.216 16.3 0.569 c -1.98 0.355 -3.82 0.938 -5.618 1.852 c -1.767 0.9 -3.385 2.075 -4.787 3.478 s -2.578 3.017 -3.477 4.785 c -0.915 1.8 -1.497 3.642 -1.852 5.623 c -0.35 1.95 -0.468 3.94 -0.52 5.91 c -0.025 0.905 -0.035 1.81 -0.04 2.715 C 0 26.004 0 27.079 0 28.154 v 33.692 c 0 1.075 0 2.15 0.005 3.225 c 0.005 0.905 0.015 1.81 0.04 2.715 c 0.052 1.973 0.17 3.96 0.52 5.91 c 0.355 1.98 0.938 3.823 1.852 5.622 c 0.9 1.768 2.075 3.382 3.477 4.785 c 1.403 1.402 3.02 2.577 4.787 3.478 c 1.797 0.915 3.64 1.495 5.617 1.853 c 1.95 0.35 3.94 0.467 5.913 0.52 c 0.905 0.025 1.81 0.035 2.715 0.04 c 1.075 0.007 2.15 0.005 3.225 0.005 h 33.693 c 1.075 0 2.15 0 3.225 -0.005 c 0.905 -0.005 1.81 -0.015 2.715 -0.04 c 1.973 -0.052 3.963 -0.17 5.912 -0.52 c 1.98 -0.355 3.82 -0.938 5.618 -1.853 c 1.768 -0.9 3.385 -2.075 4.787 -3.478 c 1.402 -1.402 2.577 -3.018 3.478 -4.785 c 0.915 -1.8 1.497 -3.643 1.853 -5.622 c 0.35 -1.95 0.467 -3.94 0.52 -5.91 c 0.025 -0.905 0.035 -1.81 0.04 -2.715 c 0.007 -1.075 0.005 -2.15 0.005 -3.225 V 28.154 H 90 z" style="stroke: none; stroke-width: 1; stroke-dasharray: none; stroke-linecap: butt; stroke-linejoin: miter; stroke-miterlimit: 10; fill: rgb(0,0,0); fill-rule: evenodd; opacity: 1;" transform=" matrix(1 0 0 1 0 0) " stroke-linecap="round"/>
	<path d="M 66.791 14.396 c -0.217 0.02 -2.15 0.363 -2.382 0.41 l -26.75 5.397 l -0.01 0.003 c -0.697 0.147 -1.245 0.395 -1.667 0.75 c -0.51 0.427 -0.792 1.032 -0.9 1.737 c -0.022 0.15 -0.06 0.455 -0.06 0.905 c 0 0 0 27.33 0 33.48 c 0 0.783 -0.062 1.542 -0.593 2.19 c -0.53 0.647 -1.185 0.842 -1.952 0.998 c -0.582 0.118 -1.165 0.235 -1.747 0.353 c -2.21 0.445 -3.647 0.748 -4.95 1.252 c -1.245 0.482 -2.177 1.097 -2.92 1.877 c -1.472 1.542 -2.07 3.635 -1.865 5.595 c 0.175 1.673 0.927 3.272 2.22 4.455 c 0.872 0.8 1.962 1.408 3.247 1.665 c 1.333 0.268 2.753 0.175 4.827 -0.245 c 1.105 -0.223 2.14 -0.57 3.125 -1.152 c 0.975 -0.575 1.81 -1.342 2.463 -2.277 c 0.655 -0.938 1.077 -1.98 1.31 -3.088 c 0.24 -1.143 0.298 -2.175 0.298 -3.315 V 36.349 c 0 -1.555 0.44 -1.965 1.695 -2.27 c 0 0 22.235 -4.485 23.272 -4.688 c 1.447 -0.278 2.13 0.135 2.13 1.653 v 19.823 c 0 0.785 -0.007 1.58 -0.543 2.23 c -0.53 0.647 -1.185 0.842 -1.952 0.998 c -0.583 0.118 -1.165 0.235 -1.748 0.353 c -2.21 0.445 -3.647 0.748 -4.95 1.252 c -1.245 0.482 -2.178 1.097 -2.92 1.877 c -1.472 1.542 -2.123 3.635 -1.917 5.595 c 0.175 1.672 0.98 3.272 2.272 4.455 c 0.873 0.8 1.963 1.39 3.248 1.65 c 1.333 0.268 2.752 0.173 4.827 -0.245 c 1.105 -0.223 2.14 -0.555 3.125 -1.137 c 0.975 -0.575 1.81 -1.342 2.463 -2.277 c 0.655 -0.938 1.077 -1.98 1.31 -3.087 c 0.24 -1.143 0.25 -2.175 0.25 -3.315 V 16.761 C 69.051 15.221 68.238 14.271 66.791 14.396 z" style="stroke: none; stroke-width: 1; stroke-dasharray: none; stroke-linecap: butt; stroke-linejoin: miter; stroke-miterlimit: 10; fill: rgb(255,255,255); fill-rule: evenodd; opacity: 1;" transform=" matrix(1 0 0 1 0 0) " stroke-linecap="round"/>
</g>
</svg>