<svg xmlns="http://www.w3.org/2000/svg" xmlns:xlink="http://www.w3.org/1999/xlink" version="1.1" width="256" height="256" viewBox="0 0 256 256" xml:space="preserve">
<g style="stroke: none; stroke-width: 0; stroke-dasharray: none; stroke-linecap: butt; stroke-linejoin: miter; stroke-miterlimit: 10; fill: none; fill-rule: nonzero; opacity: 1;" transform="translate(1.4065934065934016 1.4065934065934016) scale(2.81 2.81)">
	<circle cx="45" cy="45" r="45" style="stroke: none; stroke-width: 1; stroke-dasharray: none; stroke-linecap: butt; stroke-linejoin: miter; stroke-miterlimit: 10; fill: rgb(0,0,0); fill-rule: evenodd; opacity: 1;" transform="  matrix(1 0 0 1 0 0) "/>
	<path d="M 63.574 17.51 c -0.195 0.018 -1.931 0.326 -2.14 0.368 l -24.029 4.848 l -0.009 0.002 c -0.627 0.132 -1.118 0.355 -1.498 0.674 c -0.458 0.384 -0.712 0.927 -0.808 1.561 c -0.02 0.135 -0.054 0.409 -0.054 0.813 c 0 0 0 24.55 0 30.074 c 0 0.703 -0.056 1.386 -0.532 1.967 c -0.476 0.582 -1.064 0.757 -1.754 0.896 c -0.523 0.106 -1.046 0.211 -1.57 0.317 c -1.985 0.4 -3.276 0.671 -4.446 1.125 c -1.118 0.433 -1.956 0.986 -2.623 1.686 c -1.323 1.386 -1.859 3.265 -1.675 5.026 c 0.157 1.502 0.833 2.94 1.994 4.002 c 0.784 0.719 1.763 1.264 2.917 1.496 c 1.197 0.24 2.472 0.157 4.336 -0.22 c 0.993 -0.2 1.922 -0.512 2.807 -1.035 c 0.876 -0.516 1.626 -1.206 2.212 -2.046 c 0.588 -0.842 0.968 -1.779 1.177 -2.773 c 0.216 -1.026 0.267 -1.954 0.267 -2.978 V 37.229 c 0 -1.397 0.395 -1.765 1.523 -2.039 c 0 0 19.973 -4.029 20.905 -4.211 c 1.3 -0.249 1.913 0.121 1.913 1.484 V 50.27 c 0 0.705 -0.007 1.419 -0.487 2.003 c -0.476 0.582 -1.064 0.757 -1.754 0.896 c -0.523 0.106 -1.046 0.211 -1.57 0.317 c -1.985 0.4 -3.276 0.671 -4.446 1.125 c -1.118 0.433 -1.956 0.986 -2.623 1.686 c -1.323 1.386 -1.907 3.265 -1.722 5.026 c 0.157 1.502 0.88 2.94 2.041 4.002 c 0.784 0.719 1.763 1.249 2.917 1.482 c 1.197 0.24 2.472 0.155 4.336 -0.22 c 0.993 -0.2 1.922 -0.499 2.807 -1.022 c 0.876 -0.517 1.626 -1.206 2.212 -2.046 c 0.588 -0.842 0.968 -1.779 1.177 -2.773 c 0.216 -1.026 0.225 -1.954 0.225 -2.978 V 19.634 C 65.604 18.251 64.874 17.398 63.574 17.51 z" style="stroke: none; stroke-width: 1; stroke-dasharray: none; stroke-linecap: butt; stroke-linejoin: miter; stroke-miterlimit: 10; fill: rgb(255,255,255); fill-rule: evenodd; opacity: 1;" transform=" matrix(1 0 0 1 0 0) " stroke-linecap="round"/>
</g>
</svg>