<?xml version="1.0" encoding="iso-8859-1"?>
<svg version="1.1" id="Layer_1" xmlns="http://www.w3.org/2000/svg" xmlns:xlink="http://www.w3.org/1999/xlink" x="0px" y="0px"
	 viewBox="0 0 310 310" style="enable-background:new 0 0 310 310;" xml:space="preserve">
<g>
	<path d="M90.244,264.828C90.244,240.11,70.139,220,45.427,220c-24.715,0-44.822,20.11-44.822,44.828
		c0,24.714,20.107,44.82,44.822,44.82C70.139,309.648,90.244,289.542,90.244,264.828z"/>
	<path d="M5.648,169.43c35.961,0,69.782,14.066,95.231,39.605c25.45,25.583,39.467,59.648,39.467,95.92
		c0,2.762,2.238,5,5,5h57.486c2.762,0,5-2.238,5-5c0-111.952-90.699-203.031-202.185-203.031c-2.762,0-5,2.238-5,5v57.505
		C0.648,167.191,2.887,169.43,5.648,169.43z"/>
	<path id="XMLID_791_" d="M5.726,0c-2.762,0-5,2.238-5,5v57.495c0,2.762,2.238,5,5,5c130.24,0,236.199,106.544,236.199,237.505
		c0,2.762,2.238,5,5,5h57.471c2.762,0,5-2.238,5-5C309.396,136.822,173.17,0,5.726,0z"/>
</g>
</svg>
