<svg xmlns="http://www.w3.org/2000/svg" xmlns:xlink="http://www.w3.org/1999/xlink" version="1.1" width="256" height="256" viewBox="0 0 256 256" xml:space="preserve">
<g style="stroke: none; stroke-width: 0; stroke-dasharray: none; stroke-linecap: butt; stroke-linejoin: miter; stroke-miterlimit: 10; fill: none; fill-rule: nonzero; opacity: 1;" transform="translate(1.4065934065934016 1.4065934065934016) scale(2.81 2.81)">
	<path d="M 88.119 23.338 c -1.035 -3.872 -4.085 -6.922 -7.957 -7.957 C 73.144 13.5 45 13.5 45 13.5 s -28.144 0 -35.162 1.881 c -3.872 1.035 -6.922 4.085 -7.957 7.957 C 0 30.356 0 45 0 45 s 0 14.644 1.881 21.662 c 1.035 3.872 4.085 6.922 7.957 7.957 C 16.856 76.5 45 76.5 45 76.5 s 28.144 0 35.162 -1.881 c 3.872 -1.035 6.922 -4.085 7.957 -7.957 C 90 59.644 90 45 90 45 S 90 30.356 88.119 23.338 z M 36 58.5 v -27 L 59.382 45 L 36 58.5 z" style="stroke: none; stroke-width: 1; stroke-dasharray: none; stroke-linecap: butt; stroke-linejoin: miter; stroke-miterlimit: 10; fill: rgb(0,0,0); fill-rule: nonzero; opacity: 1;" transform=" matrix(1 0 0 1 0 0) " stroke-linecap="round"/>
</g>
</svg>